<?xml version="1.0" encoding="UTF-8" standalone="no"?>
<!-- Created with Inkscape (http://www.inkscape.org/) -->

<svg
   width="54.8339mm"
   height="34.833904mm"
   viewBox="0 0 54.8339 34.833904"
   version="1.1"
   id="svg1"
   xmlns="http://www.w3.org/2000/svg"
   xmlns:svg="http://www.w3.org/2000/svg">
  <defs
     id="defs1" />
  <g
     id="layer1"
     transform="translate(-67.398573,-22.448191)">
    <rect
       style="fill:none;stroke:#000000;stroke-width:2;stroke-dasharray:none;stroke-opacity:1"
       id="rect8"
       width="52.8339"
       height="32.833904"
       x="68.398575"
       y="23.448191"
       ry="5.5210214" />
  </g>
  <g
     id="layer7"
     transform="translate(-67.398573,-22.448191)">
    <rect
       style="fill:none;stroke:#000000;stroke-width:0.889313;stroke-dasharray:none;stroke-opacity:1"
       id="rect8-8"
       width="17.110687"
       height="9.1106892"
       x="73.394295"
       y="27.465336"
       ry="1.5319625" />
  </g>
  <g
     id="layer2"
     transform="translate(-67.398573,-23.118082)">
    <g
       id="g9"
       transform="translate(-0.1880309)">
      <circle
         style="fill:none;stroke:#000000;stroke-width:0.4;stroke-dasharray:none;stroke-opacity:1"
         id="path9-1"
         cx="75.387665"
         cy="45.458279"
         r="1" />
      <circle
         style="fill:none;stroke:#000000;stroke-width:0.5;stroke-dasharray:none;stroke-opacity:1"
         id="path9-1-2"
         cx="75.387665"
         cy="45.458279"
         r="2" />
    </g>
    <g
       id="g11"
       transform="translate(6.6907893)">
      <circle
         style="fill:none;stroke:#000000;stroke-width:0.4;stroke-dasharray:none;stroke-opacity:1"
         id="circle10"
         cx="75.387665"
         cy="45.458279"
         r="1" />
      <circle
         style="fill:none;stroke:#000000;stroke-width:0.5;stroke-dasharray:none;stroke-opacity:1"
         id="circle11"
         cx="75.387665"
         cy="45.458279"
         r="2" />
    </g>
    <g
       id="g13"
       transform="translate(13.381579)">
      <circle
         style="fill:none;stroke:#000000;stroke-width:0.4;stroke-dasharray:none;stroke-opacity:1"
         id="circle12"
         cx="75.387665"
         cy="45.458279"
         r="1" />
      <circle
         style="fill:none;stroke:#000000;stroke-width:0.5;stroke-dasharray:none;stroke-opacity:1"
         id="circle13"
         cx="75.387665"
         cy="45.458279"
         r="2" />
    </g>
    <g
       id="g15"
       transform="translate(20.072368)">
      <circle
         style="fill:none;stroke:#000000;stroke-width:0.4;stroke-dasharray:none;stroke-opacity:1"
         id="circle14"
         cx="75.387665"
         cy="45.458279"
         r="1" />
      <circle
         style="fill:none;stroke:#000000;stroke-width:0.5;stroke-dasharray:none;stroke-opacity:1"
         id="circle15"
         cx="75.387665"
         cy="45.458279"
         r="2" />
    </g>
  </g>
  <g
     id="g37"
     transform="translate(-67.398573,-16.670384)">
    <g
       id="g30"
       transform="translate(-0.1880309)">
      <circle
         style="fill:none;stroke:#000000;stroke-width:0.4;stroke-dasharray:none;stroke-opacity:1"
         id="circle29"
         cx="75.387665"
         cy="45.458279"
         r="1" />
      <circle
         style="fill:none;stroke:#000000;stroke-width:0.5;stroke-dasharray:none;stroke-opacity:1"
         id="circle30"
         cx="75.387665"
         cy="45.458279"
         r="2" />
    </g>
    <g
       id="g32"
       transform="translate(6.6907893)">
      <circle
         style="fill:none;stroke:#000000;stroke-width:0.4;stroke-dasharray:none;stroke-opacity:1"
         id="circle31"
         cx="75.387665"
         cy="45.458279"
         r="1" />
      <circle
         style="fill:none;stroke:#000000;stroke-width:0.5;stroke-dasharray:none;stroke-opacity:1"
         id="circle32"
         cx="75.387665"
         cy="45.458279"
         r="2" />
    </g>
    <g
       id="g34"
       transform="translate(13.381579)">
      <circle
         style="fill:none;stroke:#000000;stroke-width:0.4;stroke-dasharray:none;stroke-opacity:1"
         id="circle33"
         cx="75.387665"
         cy="45.458279"
         r="1" />
      <circle
         style="fill:none;stroke:#000000;stroke-width:0.5;stroke-dasharray:none;stroke-opacity:1"
         id="circle34"
         cx="75.387665"
         cy="45.458279"
         r="2" />
    </g>
    <g
       id="g36"
       transform="translate(20.072368)">
      <circle
         style="fill:none;stroke:#000000;stroke-width:0.4;stroke-dasharray:none;stroke-opacity:1"
         id="circle35"
         cx="75.387665"
         cy="45.458279"
         r="1" />
      <circle
         style="fill:none;stroke:#000000;stroke-width:0.5;stroke-dasharray:none;stroke-opacity:1"
         id="circle36"
         cx="75.387665"
         cy="45.458279"
         r="2" />
    </g>
  </g>
  <g
     id="layer5"
     transform="translate(-67.398573,-22.448191)">
    <path
       style="display:inline;fill:none;stroke:#000000;stroke-width:1;stroke-dasharray:none;stroke-opacity:1"
       d="m 106.43638,53.046964 h 7.93994 a 1.6822288,1.6822288 135 0 0 1.68223,-1.682229 V 28.294781 a 1.582893,1.582893 45 0 0 -1.58289,-1.582893 h -9.80525 -2.12154 a 1.6465879,1.6465879 135 0 0 -1.64659,1.646588 l 0,8.030995 a 1.4593495,1.4593495 45 0 0 1.45935,1.459349 h 0.99039 a 1.4776928,1.4776928 45.157826 0 1 1.47767,1.485834 l -0.0663,12.030107 a 1.6729866,1.6729866 45.157826 0 0 1.67296,1.682203 z"
       id="path10" />
    <g
       id="layer6">
      <path
         style="fill:none;stroke:#000000;stroke-width:0.453866;stroke-dasharray:none;stroke-opacity:1"
         d="m 106.07566,26.970394 -4.79606,4.796052"
         id="path17-8"
         transform="matrix(1.1016458,0,0,1.1016458,-10.783033,-2.7612483)" />
      <path
         style="fill:none;stroke:#000000;stroke-width:0.250197;stroke-dasharray:none;stroke-opacity:1"
         d="m 106.07566,26.970394 -4.79606,4.796052"
         id="path17"
         transform="matrix(2.0520062,0,0,2.0520062,-106.82731,-28.51065)" />
      <path
         style="fill:none;stroke:#000000;stroke-width:0.210661;stroke-dasharray:none;stroke-opacity:1"
         d="m 106.07566,26.970394 -4.79606,4.796052"
         id="path19"
         transform="matrix(2.3734811,0,0,2.3734811,-136.16035,-37.152516)" />
      <path
         style="fill:none;stroke:#000000;stroke-width:0.210661;stroke-dasharray:none;stroke-opacity:1"
         d="m 106.07566,26.970394 -4.79606,4.796052"
         id="path21"
         transform="matrix(2.3734811,0,0,2.3734811,-135.68666,-32.711727)" />
      <path
         style="fill:none;stroke:#000000;stroke-width:0.21137;stroke-dasharray:none;stroke-opacity:1"
         d="m 106.07566,26.970394 -4.79606,4.796052"
         id="path23"
         transform="matrix(2.3592672,0,0,2.3717926,-133.94148,-28.225985)" />
      <path
         style="fill:none;stroke:#000000;stroke-width:0.322464;stroke-dasharray:none;stroke-opacity:1"
         d="m 106.07566,26.970394 -7.259752,7.435247"
         id="path25"
         transform="matrix(1.5464608,0,0,1.554671,-47.703832,-1.1408356)" />
      <path
         style="fill:none;stroke:#000000;stroke-width:0.83365;stroke-dasharray:none;stroke-opacity:1"
         d="M 106.07566,26.970394 94.280419,39.564131"
         id="path27"
         transform="matrix(0.59818663,0,0,0.60136242,52.955604,28.937295)" />
      <path
         style="fill:none;stroke:#000000;stroke-width:2.09958;stroke-dasharray:none;stroke-opacity:1"
         d="M 106.07566,26.970394 94.280419,39.564131"
         id="path38"
         transform="matrix(0.21307847,0,0,0.21420971,93.608997,44.459336)" />
    </g>
  </g>
  <g
     id="layer3"
     transform="translate(-67.398573,-22.448191)">
    <circle
       style="fill:#000000;stroke:#000000;stroke-width:0.5;stroke-dasharray:none;stroke-opacity:1"
       id="path9"
       cx="75.199631"
       cy="40.025967"
       r="1" />
    <circle
       style="fill:#000000;stroke:#000000;stroke-width:0.5;stroke-dasharray:none;stroke-opacity:1"
       id="circle16"
       cx="82.128456"
       cy="40.025967"
       r="1" />
    <circle
       style="fill:#000000;stroke:#000000;stroke-width:0.5;stroke-dasharray:none;stroke-opacity:1"
       id="circle17"
       cx="88.819244"
       cy="40.025967"
       r="1" />
  </g>
</svg>
