<?xml version="1.0" encoding="UTF-8" standalone="no"?>
<!-- Created with Inkscape (http://www.inkscape.org/) -->

<svg
   width="16.37911mm"
   height="22.704571mm"
   viewBox="0 0 16.37911 22.704571"
   version="1.1"
   id="svg1"
   xmlns="http://www.w3.org/2000/svg"
   xmlns:svg="http://www.w3.org/2000/svg">
  <defs
     id="defs1" />
  <g
     id="layer1"
     transform="translate(-74.806132,-35.545625)">
    <path
       id="rect3"
       style="fill:#00b9ff;fill-opacity:1;fill-rule:evenodd;paint-order:markers fill stroke"
       d="m 82.935506,35.545634 a 1.0001,1.0001 0 0 0 -0.862996,0.504879 l -3.568258,6.241479 -3.56619,6.243547 a 1.0001,1.0001 0 0 0 0.872814,1.496549 l 4.435389,-0.01964 v 6.649723 c 0,0.875189 0.712312,1.588017 1.5875,1.588017 h 2.324406 c 0.875189,0 1.588016,-0.712828 1.588016,-1.588017 v -6.674528 l 4.44469,-0.01964 a 1.0001,1.0001 0 0 0 0.858863,-1.50275 l -3.622518,-6.211507 -3.622518,-6.210991 a 1.0001,1.0001 0 0 0 -0.869198,-0.497127 z" />
  </g>
  <g
     id="g5"
     style="display:none"
     transform="translate(-74.806132,-35.545625)">
    <path
       style="fill-rule:evenodd;paint-order:markers fill stroke"
       d="m 81.833984,47.75 c -0.875188,0 -1.58789,0.712702 -1.58789,1.587891 v 7.324218 c 0,0.875189 0.712702,1.587891 1.58789,1.587891 h 2.324219 c 0.875189,0 1.587891,-0.712702 1.587891,-1.587891 v -7.324218 c 0,-0.875189 -0.712702,-1.587891 -1.587891,-1.587891 z"
       id="path4" />
    <path
       style="fill-rule:evenodd;stroke-width:1.02986;stroke-linejoin:round"
       d="m 82.935636,35.54574 a 1.0001,1.0001 0 0 0 -0.86291,0.504873 l -3.568307,6.241519 -3.566295,6.24353 a 1.0001,1.0001 0 0 0 0.872969,1.496517 l 7.188909,-0.03218 7.190922,-0.03218 a 1.0001,1.0001 0 0 0 0.858889,-1.50255 L 87.427196,42.253915 83.804581,36.042567 A 1.0001,1.0001 0 0 0 82.935636,35.54574 Z"
       id="path5" />
  </g>
</svg>
